<svg width="241" height="40" viewBox="0 0 241 40" fill="none" xmlns="http://www.w3.org/2000/svg">
<path d="M20.5 0L14.4128 15.6511H0.5L12.021 24.1301L7.45639 40L20.5 29.5639L33.5436 40L28.9759 24.1301L40.5 15.6511H26.5872L20.5 0Z" fill="#FF9500"/>
<path d="M70.5 0L64.4128 15.6511H50.5L62.021 24.1301L57.4564 40L70.5 29.5639L83.5436 40L78.9759 24.1301L90.5 15.6511H76.5872L70.5 0Z" fill="#FF9500"/>
<path d="M120.5 0L114.413 15.6511H100.5L112.021 24.1301L107.456 40L120.5 29.5639L133.544 40L128.976 24.1301L140.5 15.6511H126.587L120.5 0Z" fill="#FF9500"/>
<path d="M170.5 0L164.413 15.6511H150.5L162.021 24.1301L157.456 40L170.5 29.5639L183.544 40L178.976 24.1301L190.5 15.6511H176.587L170.5 0Z" fill="#FF9500"/>
<path d="M220.5 0L214.413 15.6511H200.5L212.021 24.1301L207.456 40L220.5 29.5639L233.544 40L228.976 24.1301L240.5 15.6511H226.587L220.5 0Z" fill="#FF9500"/>
</svg>
